<mxfile host="app.diagrams.net" modified="2024-07-23T22:51:44.378Z" agent="Mozilla/5.0 (Macintosh; Intel Mac OS X 10_15_7) AppleWebKit/537.36 (KHTML, like Gecko) Chrome/126.0.0.0 Safari/537.36" etag="Jxxx1n65sug2nJts8HpN" version="24.7.1" type="device">
  <diagram name="Page-1" id="VAgtW52QKWnHPR9T7oZi">
    <mxGraphModel dx="1590" dy="2032" grid="1" gridSize="10" guides="1" tooltips="1" connect="1" arrows="1" fold="1" page="1" pageScale="1" pageWidth="850" pageHeight="1100" math="0" shadow="0">
      <root>
        <mxCell id="0" />
        <mxCell id="1" parent="0" />
        <mxCell id="tYps2S7MQluSmhWAjfAB-1" value="Car" style="swimlane;fontStyle=0;childLayout=stackLayout;horizontal=1;startSize=26;fillColor=none;horizontalStack=0;resizeParent=1;resizeParentMax=0;resizeLast=0;collapsible=1;marginBottom=0;whiteSpace=wrap;html=1;" parent="1" vertex="1">
          <mxGeometry x="360" y="274" width="160" height="190" as="geometry">
            <mxRectangle x="300" y="190" width="100" height="30" as="alternateBounds" />
          </mxGeometry>
        </mxCell>
        <mxCell id="tYps2S7MQluSmhWAjfAB-2" value="- make: Make" style="text;strokeColor=none;fillColor=none;align=left;verticalAlign=top;spacingLeft=4;spacingRight=4;overflow=hidden;rotatable=0;points=[[0,0.5],[1,0.5]];portConstraint=eastwest;whiteSpace=wrap;html=1;" parent="tYps2S7MQluSmhWAjfAB-1" vertex="1">
          <mxGeometry y="26" width="160" height="26" as="geometry" />
        </mxCell>
        <mxCell id="tYps2S7MQluSmhWAjfAB-4" value="- carID : int" style="text;strokeColor=none;fillColor=none;align=left;verticalAlign=top;spacingLeft=4;spacingRight=4;overflow=hidden;rotatable=0;points=[[0,0.5],[1,0.5]];portConstraint=eastwest;whiteSpace=wrap;html=1;" parent="tYps2S7MQluSmhWAjfAB-1" vertex="1">
          <mxGeometry y="52" width="160" height="26" as="geometry" />
        </mxCell>
        <mxCell id="tYps2S7MQluSmhWAjfAB-3" value="- model : Model" style="text;strokeColor=none;fillColor=none;align=left;verticalAlign=top;spacingLeft=4;spacingRight=4;overflow=hidden;rotatable=0;points=[[0,0.5],[1,0.5]];portConstraint=eastwest;whiteSpace=wrap;html=1;" parent="tYps2S7MQluSmhWAjfAB-1" vertex="1">
          <mxGeometry y="78" width="160" height="26" as="geometry" />
        </mxCell>
        <mxCell id="tYps2S7MQluSmhWAjfAB-46" value="- specs :&amp;nbsp;&lt;span style=&quot;text-align: center;&quot;&gt;Specification&lt;/span&gt;" style="text;strokeColor=none;fillColor=none;align=left;verticalAlign=top;spacingLeft=4;spacingRight=4;overflow=hidden;rotatable=0;points=[[0,0.5],[1,0.5]];portConstraint=eastwest;whiteSpace=wrap;html=1;" parent="tYps2S7MQluSmhWAjfAB-1" vertex="1">
          <mxGeometry y="104" width="160" height="26" as="geometry" />
        </mxCell>
        <mxCell id="tYps2S7MQluSmhWAjfAB-51" value="- parts : ArrayList&amp;lt;Part&amp;gt;" style="text;strokeColor=none;fillColor=none;align=left;verticalAlign=top;spacingLeft=4;spacingRight=4;overflow=hidden;rotatable=0;points=[[0,0.5],[1,0.5]];portConstraint=eastwest;whiteSpace=wrap;html=1;" parent="tYps2S7MQluSmhWAjfAB-1" vertex="1">
          <mxGeometry y="130" width="160" height="26" as="geometry" />
        </mxCell>
        <mxCell id="ZaRVG7wh-fFme3J9Wx36-9" value="" style="line;strokeWidth=1;fillColor=none;align=left;verticalAlign=middle;spacingTop=-1;spacingLeft=3;spacingRight=3;rotatable=0;labelPosition=right;points=[];portConstraint=eastwest;strokeColor=inherit;" parent="tYps2S7MQluSmhWAjfAB-1" vertex="1">
          <mxGeometry y="156" width="160" height="8" as="geometry" />
        </mxCell>
        <mxCell id="ZaRVG7wh-fFme3J9Wx36-2" value="+ getName() : String" style="text;strokeColor=none;fillColor=none;align=left;verticalAlign=top;spacingLeft=4;spacingRight=4;overflow=hidden;rotatable=0;points=[[0,0.5],[1,0.5]];portConstraint=eastwest;whiteSpace=wrap;html=1;" parent="tYps2S7MQluSmhWAjfAB-1" vertex="1">
          <mxGeometry y="164" width="160" height="26" as="geometry" />
        </mxCell>
        <mxCell id="tYps2S7MQluSmhWAjfAB-5" value="Make" style="swimlane;fontStyle=0;childLayout=stackLayout;horizontal=1;startSize=26;fillColor=none;horizontalStack=0;resizeParent=1;resizeParentMax=0;resizeLast=0;collapsible=1;marginBottom=0;whiteSpace=wrap;html=1;" parent="1" vertex="1">
          <mxGeometry x="840" y="538" width="160" height="112" as="geometry">
            <mxRectangle x="300" y="190" width="100" height="30" as="alternateBounds" />
          </mxGeometry>
        </mxCell>
        <mxCell id="tYps2S7MQluSmhWAjfAB-6" value="- name : String" style="text;strokeColor=none;fillColor=none;align=left;verticalAlign=top;spacingLeft=4;spacingRight=4;overflow=hidden;rotatable=0;points=[[0,0.5],[1,0.5]];portConstraint=eastwest;whiteSpace=wrap;html=1;" parent="tYps2S7MQluSmhWAjfAB-5" vertex="1">
          <mxGeometry y="26" width="160" height="26" as="geometry" />
        </mxCell>
        <mxCell id="tYps2S7MQluSmhWAjfAB-7" value="- country : String" style="text;strokeColor=none;fillColor=none;align=left;verticalAlign=top;spacingLeft=4;spacingRight=4;overflow=hidden;rotatable=0;points=[[0,0.5],[1,0.5]];portConstraint=eastwest;whiteSpace=wrap;html=1;" parent="tYps2S7MQluSmhWAjfAB-5" vertex="1">
          <mxGeometry y="52" width="160" height="26" as="geometry" />
        </mxCell>
        <mxCell id="ZifQeiChf-1d4aZ04pU3-65" value="" style="line;strokeWidth=1;fillColor=none;align=left;verticalAlign=middle;spacingTop=-1;spacingLeft=3;spacingRight=3;rotatable=0;labelPosition=right;points=[];portConstraint=eastwest;strokeColor=inherit;" vertex="1" parent="tYps2S7MQluSmhWAjfAB-5">
          <mxGeometry y="78" width="160" height="8" as="geometry" />
        </mxCell>
        <mxCell id="ZifQeiChf-1d4aZ04pU3-61" value="+ Make(String, String)" style="text;strokeColor=none;fillColor=none;align=left;verticalAlign=top;spacingLeft=4;spacingRight=4;overflow=hidden;rotatable=0;points=[[0,0.5],[1,0.5]];portConstraint=eastwest;whiteSpace=wrap;html=1;" vertex="1" parent="tYps2S7MQluSmhWAjfAB-5">
          <mxGeometry y="86" width="160" height="26" as="geometry" />
        </mxCell>
        <mxCell id="tYps2S7MQluSmhWAjfAB-10" value="Model" style="swimlane;fontStyle=0;childLayout=stackLayout;horizontal=1;startSize=26;fillColor=none;horizontalStack=0;resizeParent=1;resizeParentMax=0;resizeLast=0;collapsible=1;marginBottom=0;whiteSpace=wrap;html=1;" parent="1" vertex="1">
          <mxGeometry x="600" y="512" width="160" height="138" as="geometry">
            <mxRectangle x="300" y="190" width="100" height="30" as="alternateBounds" />
          </mxGeometry>
        </mxCell>
        <mxCell id="tYps2S7MQluSmhWAjfAB-11" value="- name : String" style="text;strokeColor=none;fillColor=none;align=left;verticalAlign=top;spacingLeft=4;spacingRight=4;overflow=hidden;rotatable=0;points=[[0,0.5],[1,0.5]];portConstraint=eastwest;whiteSpace=wrap;html=1;" parent="tYps2S7MQluSmhWAjfAB-10" vertex="1">
          <mxGeometry y="26" width="160" height="26" as="geometry" />
        </mxCell>
        <mxCell id="tYps2S7MQluSmhWAjfAB-12" value="- manufacturer : Make" style="text;strokeColor=none;fillColor=none;align=left;verticalAlign=top;spacingLeft=4;spacingRight=4;overflow=hidden;rotatable=0;points=[[0,0.5],[1,0.5]];portConstraint=eastwest;whiteSpace=wrap;html=1;" parent="tYps2S7MQluSmhWAjfAB-10" vertex="1">
          <mxGeometry y="52" width="160" height="26" as="geometry" />
        </mxCell>
        <mxCell id="tYps2S7MQluSmhWAjfAB-14" value="- modelYear : int" style="text;strokeColor=none;fillColor=none;align=left;verticalAlign=top;spacingLeft=4;spacingRight=4;overflow=hidden;rotatable=0;points=[[0,0.5],[1,0.5]];portConstraint=eastwest;whiteSpace=wrap;html=1;" parent="tYps2S7MQluSmhWAjfAB-10" vertex="1">
          <mxGeometry y="78" width="160" height="26" as="geometry" />
        </mxCell>
        <mxCell id="ZifQeiChf-1d4aZ04pU3-62" value="" style="line;strokeWidth=1;fillColor=none;align=left;verticalAlign=middle;spacingTop=-1;spacingLeft=3;spacingRight=3;rotatable=0;labelPosition=right;points=[];portConstraint=eastwest;strokeColor=inherit;" vertex="1" parent="tYps2S7MQluSmhWAjfAB-10">
          <mxGeometry y="104" width="160" height="8" as="geometry" />
        </mxCell>
        <mxCell id="ZifQeiChf-1d4aZ04pU3-60" value="+ Model(String, Make, int)" style="text;strokeColor=none;fillColor=none;align=left;verticalAlign=top;spacingLeft=4;spacingRight=4;overflow=hidden;rotatable=0;points=[[0,0.5],[1,0.5]];portConstraint=eastwest;whiteSpace=wrap;html=1;" vertex="1" parent="tYps2S7MQluSmhWAjfAB-10">
          <mxGeometry y="112" width="160" height="26" as="geometry" />
        </mxCell>
        <mxCell id="tYps2S7MQluSmhWAjfAB-16" value="" style="endArrow=open;html=1;endSize=12;startArrow=diamondThin;startSize=14;startFill=1;edgeStyle=orthogonalEdgeStyle;align=left;verticalAlign=bottom;rounded=0;" parent="1" source="tYps2S7MQluSmhWAjfAB-10" target="tYps2S7MQluSmhWAjfAB-5" edge="1">
          <mxGeometry x="-0.75" y="-1" relative="1" as="geometry">
            <mxPoint x="1000" y="672" as="sourcePoint" />
            <mxPoint x="1160" y="672" as="targetPoint" />
            <Array as="points">
              <mxPoint x="790" y="580" />
              <mxPoint x="790" y="580" />
            </Array>
            <mxPoint as="offset" />
          </mxGeometry>
        </mxCell>
        <mxCell id="tYps2S7MQluSmhWAjfAB-20" value="Specification" style="swimlane;fontStyle=0;childLayout=stackLayout;horizontal=1;startSize=26;fillColor=none;horizontalStack=0;resizeParent=1;resizeParentMax=0;resizeLast=0;collapsible=1;marginBottom=0;whiteSpace=wrap;html=1;" parent="1" vertex="1">
          <mxGeometry x="120" y="-106" width="160" height="572" as="geometry" />
        </mxCell>
        <mxCell id="tYps2S7MQluSmhWAjfAB-21" value="- grossWeight : double" style="text;strokeColor=none;fillColor=none;align=left;verticalAlign=top;spacingLeft=4;spacingRight=4;overflow=hidden;rotatable=0;points=[[0,0.5],[1,0.5]];portConstraint=eastwest;whiteSpace=wrap;html=1;" parent="tYps2S7MQluSmhWAjfAB-20" vertex="1">
          <mxGeometry y="26" width="160" height="26" as="geometry" />
        </mxCell>
        <mxCell id="tYps2S7MQluSmhWAjfAB-31" value="- curbWeight : double" style="text;strokeColor=none;fillColor=none;align=left;verticalAlign=top;spacingLeft=4;spacingRight=4;overflow=hidden;rotatable=0;points=[[0,0.5],[1,0.5]];portConstraint=eastwest;whiteSpace=wrap;html=1;" parent="tYps2S7MQluSmhWAjfAB-20" vertex="1">
          <mxGeometry y="52" width="160" height="26" as="geometry" />
        </mxCell>
        <mxCell id="Od9WjKBmiowAuR5U3fcc-9" value="- cargoCapacity : double" style="text;strokeColor=none;fillColor=none;align=left;verticalAlign=top;spacingLeft=4;spacingRight=4;overflow=hidden;rotatable=0;points=[[0,0.5],[1,0.5]];portConstraint=eastwest;whiteSpace=wrap;html=1;" parent="tYps2S7MQluSmhWAjfAB-20" vertex="1">
          <mxGeometry y="78" width="160" height="26" as="geometry" />
        </mxCell>
        <mxCell id="Od9WjKBmiowAuR5U3fcc-25" value="- towingCapacity : double" style="text;strokeColor=none;fillColor=none;align=left;verticalAlign=top;spacingLeft=4;spacingRight=4;overflow=hidden;rotatable=0;points=[[0,0.5],[1,0.5]];portConstraint=eastwest;whiteSpace=wrap;html=1;" parent="tYps2S7MQluSmhWAjfAB-20" vertex="1">
          <mxGeometry y="104" width="160" height="26" as="geometry" />
        </mxCell>
        <mxCell id="Od9WjKBmiowAuR5U3fcc-10" value="- seatingCapacity : int" style="text;strokeColor=none;fillColor=none;align=left;verticalAlign=top;spacingLeft=4;spacingRight=4;overflow=hidden;rotatable=0;points=[[0,0.5],[1,0.5]];portConstraint=eastwest;whiteSpace=wrap;html=1;" parent="tYps2S7MQluSmhWAjfAB-20" vertex="1">
          <mxGeometry y="130" width="160" height="26" as="geometry" />
        </mxCell>
        <mxCell id="ZifQeiChf-1d4aZ04pU3-53" value="- color : String" style="text;strokeColor=none;fillColor=none;align=left;verticalAlign=top;spacingLeft=4;spacingRight=4;overflow=hidden;rotatable=0;points=[[0,0.5],[1,0.5]];portConstraint=eastwest;whiteSpace=wrap;html=1;" vertex="1" parent="tYps2S7MQluSmhWAjfAB-20">
          <mxGeometry y="156" width="160" height="26" as="geometry" />
        </mxCell>
        <mxCell id="tYps2S7MQluSmhWAjfAB-43" value="- bodyType : String" style="text;strokeColor=none;fillColor=none;align=left;verticalAlign=top;spacingLeft=4;spacingRight=4;overflow=hidden;rotatable=0;points=[[0,0.5],[1,0.5]];portConstraint=eastwest;whiteSpace=wrap;html=1;" parent="tYps2S7MQluSmhWAjfAB-20" vertex="1">
          <mxGeometry y="182" width="160" height="26" as="geometry" />
        </mxCell>
        <mxCell id="Od9WjKBmiowAuR5U3fcc-11" value="- wheelDriveType : String" style="text;strokeColor=none;fillColor=none;align=left;verticalAlign=top;spacingLeft=4;spacingRight=4;overflow=hidden;rotatable=0;points=[[0,0.5],[1,0.5]];portConstraint=eastwest;whiteSpace=wrap;html=1;" parent="tYps2S7MQluSmhWAjfAB-20" vertex="1">
          <mxGeometry y="208" width="160" height="26" as="geometry" />
        </mxCell>
        <mxCell id="Od9WjKBmiowAuR5U3fcc-12" value="- finalDriveRatio: double" style="text;strokeColor=none;fillColor=none;align=left;verticalAlign=top;spacingLeft=4;spacingRight=4;overflow=hidden;rotatable=0;points=[[0,0.5],[1,0.5]];portConstraint=eastwest;whiteSpace=wrap;html=1;" parent="tYps2S7MQluSmhWAjfAB-20" vertex="1">
          <mxGeometry y="234" width="160" height="26" as="geometry" />
        </mxCell>
        <mxCell id="Od9WjKBmiowAuR5U3fcc-13" value="- differentialRatio : double" style="text;strokeColor=none;fillColor=none;align=left;verticalAlign=top;spacingLeft=4;spacingRight=4;overflow=hidden;rotatable=0;points=[[0,0.5],[1,0.5]];portConstraint=eastwest;whiteSpace=wrap;html=1;" parent="tYps2S7MQluSmhWAjfAB-20" vertex="1">
          <mxGeometry y="260" width="160" height="26" as="geometry" />
        </mxCell>
        <mxCell id="Od9WjKBmiowAuR5U3fcc-14" value="- transmissionType : String" style="text;strokeColor=none;fillColor=none;align=left;verticalAlign=top;spacingLeft=4;spacingRight=4;overflow=hidden;rotatable=0;points=[[0,0.5],[1,0.5]];portConstraint=eastwest;whiteSpace=wrap;html=1;" parent="tYps2S7MQluSmhWAjfAB-20" vertex="1">
          <mxGeometry y="286" width="160" height="26" as="geometry" />
        </mxCell>
        <mxCell id="Od9WjKBmiowAuR5U3fcc-15" value="- gearCount : int" style="text;strokeColor=none;fillColor=none;align=left;verticalAlign=top;spacingLeft=4;spacingRight=4;overflow=hidden;rotatable=0;points=[[0,0.5],[1,0.5]];portConstraint=eastwest;whiteSpace=wrap;html=1;" parent="tYps2S7MQluSmhWAjfAB-20" vertex="1">
          <mxGeometry y="312" width="160" height="26" as="geometry" />
        </mxCell>
        <mxCell id="Od9WjKBmiowAuR5U3fcc-17" value="- torqueConverter : Boolean" style="text;strokeColor=none;fillColor=none;align=left;verticalAlign=top;spacingLeft=4;spacingRight=4;overflow=hidden;rotatable=0;points=[[0,0.5],[1,0.5]];portConstraint=eastwest;whiteSpace=wrap;html=1;" parent="tYps2S7MQluSmhWAjfAB-20" vertex="1">
          <mxGeometry y="338" width="160" height="26" as="geometry" />
        </mxCell>
        <mxCell id="Od9WjKBmiowAuR5U3fcc-18" value="- fuelCapacity : double" style="text;strokeColor=none;fillColor=none;align=left;verticalAlign=top;spacingLeft=4;spacingRight=4;overflow=hidden;rotatable=0;points=[[0,0.5],[1,0.5]];portConstraint=eastwest;whiteSpace=wrap;html=1;" parent="tYps2S7MQluSmhWAjfAB-20" vertex="1">
          <mxGeometry y="364" width="160" height="26" as="geometry" />
        </mxCell>
        <mxCell id="Od9WjKBmiowAuR5U3fcc-52" value="&lt;span style=&quot;font-size: 11px;&quot;&gt;- pistonConfiguration : String&lt;/span&gt;" style="text;strokeColor=none;fillColor=none;align=left;verticalAlign=top;spacingLeft=4;spacingRight=4;overflow=hidden;rotatable=0;points=[[0,0.5],[1,0.5]];portConstraint=eastwest;whiteSpace=wrap;html=1;" parent="tYps2S7MQluSmhWAjfAB-20" vertex="1">
          <mxGeometry y="390" width="160" height="26" as="geometry" />
        </mxCell>
        <mxCell id="Od9WjKBmiowAuR5U3fcc-24" value="&lt;span style=&quot;font-size: 10px;&quot;&gt;- highwayFuelEconomy : double&lt;/span&gt;" style="text;strokeColor=none;fillColor=none;align=left;verticalAlign=top;spacingLeft=4;spacingRight=4;overflow=hidden;rotatable=0;points=[[0,0.5],[1,0.5]];portConstraint=eastwest;whiteSpace=wrap;html=1;" parent="tYps2S7MQluSmhWAjfAB-20" vertex="1">
          <mxGeometry y="416" width="160" height="26" as="geometry" />
        </mxCell>
        <mxCell id="Od9WjKBmiowAuR5U3fcc-23" value="- cityFuelEconomy : double" style="text;strokeColor=none;fillColor=none;align=left;verticalAlign=top;spacingLeft=4;spacingRight=4;overflow=hidden;rotatable=0;points=[[0,0.5],[1,0.5]];portConstraint=eastwest;whiteSpace=wrap;html=1;" parent="tYps2S7MQluSmhWAjfAB-20" vertex="1">
          <mxGeometry y="442" width="160" height="26" as="geometry" />
        </mxCell>
        <mxCell id="Od9WjKBmiowAuR5U3fcc-22" value="- fuelType : String" style="text;strokeColor=none;fillColor=none;align=left;verticalAlign=top;spacingLeft=4;spacingRight=4;overflow=hidden;rotatable=0;points=[[0,0.5],[1,0.5]];portConstraint=eastwest;whiteSpace=wrap;html=1;" parent="tYps2S7MQluSmhWAjfAB-20" vertex="1">
          <mxGeometry y="468" width="160" height="26" as="geometry" />
        </mxCell>
        <mxCell id="Od9WjKBmiowAuR5U3fcc-21" value="&lt;span style=&quot;font-size: 11px;&quot;&gt;- torque : int&lt;/span&gt;" style="text;strokeColor=none;fillColor=none;align=left;verticalAlign=top;spacingLeft=4;spacingRight=4;overflow=hidden;rotatable=0;points=[[0,0.5],[1,0.5]];portConstraint=eastwest;whiteSpace=wrap;html=1;" parent="tYps2S7MQluSmhWAjfAB-20" vertex="1">
          <mxGeometry y="494" width="160" height="26" as="geometry" />
        </mxCell>
        <mxCell id="Od9WjKBmiowAuR5U3fcc-20" value="&lt;span style=&quot;font-size: 11px;&quot;&gt;- horsepower : int&lt;/span&gt;" style="text;strokeColor=none;fillColor=none;align=left;verticalAlign=top;spacingLeft=4;spacingRight=4;overflow=hidden;rotatable=0;points=[[0,0.5],[1,0.5]];portConstraint=eastwest;whiteSpace=wrap;html=1;" parent="tYps2S7MQluSmhWAjfAB-20" vertex="1">
          <mxGeometry y="520" width="160" height="26" as="geometry" />
        </mxCell>
        <mxCell id="Od9WjKBmiowAuR5U3fcc-19" value="&lt;span style=&quot;font-size: 11px;&quot;&gt;- engineDisplacement : double&lt;/span&gt;" style="text;strokeColor=none;fillColor=none;align=left;verticalAlign=top;spacingLeft=4;spacingRight=4;overflow=hidden;rotatable=0;points=[[0,0.5],[1,0.5]];portConstraint=eastwest;whiteSpace=wrap;html=1;" parent="tYps2S7MQluSmhWAjfAB-20" vertex="1">
          <mxGeometry y="546" width="160" height="26" as="geometry" />
        </mxCell>
        <mxCell id="tYps2S7MQluSmhWAjfAB-47" value="" style="endArrow=open;html=1;endSize=12;startArrow=diamondThin;startSize=14;startFill=1;edgeStyle=orthogonalEdgeStyle;align=left;verticalAlign=bottom;rounded=0;" parent="1" source="tYps2S7MQluSmhWAjfAB-1" target="tYps2S7MQluSmhWAjfAB-5" edge="1">
          <mxGeometry x="-1" y="3" relative="1" as="geometry">
            <mxPoint x="590" y="404" as="sourcePoint" />
            <mxPoint x="750" y="404" as="targetPoint" />
            <Array as="points">
              <mxPoint x="920" y="400" />
            </Array>
          </mxGeometry>
        </mxCell>
        <mxCell id="tYps2S7MQluSmhWAjfAB-48" value="" style="endArrow=open;html=1;endSize=12;startArrow=diamondThin;startSize=14;startFill=1;edgeStyle=orthogonalEdgeStyle;align=left;verticalAlign=bottom;rounded=0;" parent="1" source="tYps2S7MQluSmhWAjfAB-1" target="tYps2S7MQluSmhWAjfAB-10" edge="1">
          <mxGeometry x="-1" y="3" relative="1" as="geometry">
            <mxPoint x="580" y="304" as="sourcePoint" />
            <mxPoint x="740" y="304" as="targetPoint" />
            <Array as="points">
              <mxPoint x="680" y="430" />
            </Array>
          </mxGeometry>
        </mxCell>
        <mxCell id="tYps2S7MQluSmhWAjfAB-52" value="Part" style="swimlane;fontStyle=0;childLayout=stackLayout;horizontal=1;startSize=26;fillColor=none;horizontalStack=0;resizeParent=1;resizeParentMax=0;resizeLast=0;collapsible=1;marginBottom=0;whiteSpace=wrap;html=1;" parent="1" vertex="1">
          <mxGeometry x="360" y="564" width="160" height="78" as="geometry">
            <mxRectangle x="300" y="190" width="100" height="30" as="alternateBounds" />
          </mxGeometry>
        </mxCell>
        <mxCell id="tYps2S7MQluSmhWAjfAB-53" value="- name : String" style="text;strokeColor=none;fillColor=none;align=left;verticalAlign=top;spacingLeft=4;spacingRight=4;overflow=hidden;rotatable=0;points=[[0,0.5],[1,0.5]];portConstraint=eastwest;whiteSpace=wrap;html=1;" parent="tYps2S7MQluSmhWAjfAB-52" vertex="1">
          <mxGeometry y="26" width="160" height="26" as="geometry" />
        </mxCell>
        <mxCell id="tYps2S7MQluSmhWAjfAB-54" value="- material : String" style="text;strokeColor=none;fillColor=none;align=left;verticalAlign=top;spacingLeft=4;spacingRight=4;overflow=hidden;rotatable=0;points=[[0,0.5],[1,0.5]];portConstraint=eastwest;whiteSpace=wrap;html=1;" parent="tYps2S7MQluSmhWAjfAB-52" vertex="1">
          <mxGeometry y="52" width="160" height="26" as="geometry" />
        </mxCell>
        <mxCell id="tYps2S7MQluSmhWAjfAB-56" value="" style="endArrow=open;html=1;endSize=12;startArrow=diamondThin;startSize=14;startFill=0;edgeStyle=orthogonalEdgeStyle;align=left;verticalAlign=bottom;rounded=0;" parent="1" source="tYps2S7MQluSmhWAjfAB-1" target="tYps2S7MQluSmhWAjfAB-52" edge="1">
          <mxGeometry x="-1" y="3" relative="1" as="geometry">
            <mxPoint x="390" y="474" as="sourcePoint" />
            <mxPoint x="550" y="474" as="targetPoint" />
            <Array as="points">
              <mxPoint x="440" y="544" />
              <mxPoint x="440" y="544" />
            </Array>
          </mxGeometry>
        </mxCell>
        <mxCell id="tYps2S7MQluSmhWAjfAB-58" value="Engine" style="swimlane;fontStyle=0;childLayout=stackLayout;horizontal=1;startSize=26;fillColor=none;horizontalStack=0;resizeParent=1;resizeParentMax=0;resizeLast=0;collapsible=1;marginBottom=0;whiteSpace=wrap;html=1;" parent="1" vertex="1">
          <mxGeometry x="120" y="792" width="160" height="208" as="geometry">
            <mxRectangle x="300" y="190" width="100" height="30" as="alternateBounds" />
          </mxGeometry>
        </mxCell>
        <mxCell id="tYps2S7MQluSmhWAjfAB-59" value="&lt;meta charset=&quot;utf-8&quot;&gt;&lt;span style=&quot;color: rgb(0, 0, 0); font-family: Helvetica; font-size: 11px; font-style: normal; font-variant-ligatures: normal; font-variant-caps: normal; font-weight: 400; letter-spacing: normal; orphans: 2; text-align: left; text-indent: 0px; text-transform: none; widows: 2; word-spacing: 0px; -webkit-text-stroke-width: 0px; white-space: normal; background-color: rgb(251, 251, 251); text-decoration-thickness: initial; text-decoration-style: initial; text-decoration-color: initial; display: inline !important; float: none;&quot;&gt;- engineDisplacement : double&lt;/span&gt;" style="text;strokeColor=none;fillColor=none;align=left;verticalAlign=top;spacingLeft=4;spacingRight=4;overflow=hidden;rotatable=0;points=[[0,0.5],[1,0.5]];portConstraint=eastwest;whiteSpace=wrap;html=1;" parent="tYps2S7MQluSmhWAjfAB-58" vertex="1">
          <mxGeometry y="26" width="160" height="26" as="geometry" />
        </mxCell>
        <mxCell id="tYps2S7MQluSmhWAjfAB-69" value="&lt;span style=&quot;color: rgb(0, 0, 0); font-family: Helvetica; font-size: 12px; font-style: normal; font-variant-ligatures: normal; font-variant-caps: normal; font-weight: 400; letter-spacing: normal; orphans: 2; text-align: left; text-indent: 0px; text-transform: none; widows: 2; word-spacing: 0px; -webkit-text-stroke-width: 0px; white-space: normal; background-color: rgb(251, 251, 251); text-decoration-thickness: initial; text-decoration-style: initial; text-decoration-color: initial; float: none; display: inline !important;&quot;&gt;- horsepower : double&lt;/span&gt;" style="text;strokeColor=none;fillColor=none;align=left;verticalAlign=top;spacingLeft=4;spacingRight=4;overflow=hidden;rotatable=0;points=[[0,0.5],[1,0.5]];portConstraint=eastwest;whiteSpace=wrap;html=1;fontSize=12;" parent="tYps2S7MQluSmhWAjfAB-58" vertex="1">
          <mxGeometry y="52" width="160" height="26" as="geometry" />
        </mxCell>
        <mxCell id="tYps2S7MQluSmhWAjfAB-70" value="&lt;meta charset=&quot;utf-8&quot;&gt;&lt;span style=&quot;color: rgb(0, 0, 0); font-family: Helvetica; font-size: 11px; font-style: normal; font-variant-ligatures: normal; font-variant-caps: normal; font-weight: 400; letter-spacing: normal; orphans: 2; text-align: left; text-indent: 0px; text-transform: none; widows: 2; word-spacing: 0px; -webkit-text-stroke-width: 0px; white-space: normal; background-color: rgb(251, 251, 251); text-decoration-thickness: initial; text-decoration-style: initial; text-decoration-color: initial; display: inline !important; float: none;&quot;&gt;- torque : double&lt;/span&gt;" style="text;strokeColor=none;fillColor=none;align=left;verticalAlign=top;spacingLeft=4;spacingRight=4;overflow=hidden;rotatable=0;points=[[0,0.5],[1,0.5]];portConstraint=eastwest;whiteSpace=wrap;html=1;" parent="tYps2S7MQluSmhWAjfAB-58" vertex="1">
          <mxGeometry y="78" width="160" height="26" as="geometry" />
        </mxCell>
        <mxCell id="tYps2S7MQluSmhWAjfAB-71" value="&lt;meta charset=&quot;utf-8&quot;&gt;&lt;span style=&quot;color: rgb(0, 0, 0); font-family: Helvetica; font-size: 12px; font-style: normal; font-variant-ligatures: normal; font-variant-caps: normal; font-weight: 400; letter-spacing: normal; orphans: 2; text-align: left; text-indent: 0px; text-transform: none; widows: 2; word-spacing: 0px; -webkit-text-stroke-width: 0px; white-space: normal; background-color: rgb(251, 251, 251); text-decoration-thickness: initial; text-decoration-style: initial; text-decoration-color: initial; display: inline !important; float: none;&quot;&gt;- fuelType : String&lt;/span&gt;" style="text;strokeColor=none;fillColor=none;align=left;verticalAlign=top;spacingLeft=4;spacingRight=4;overflow=hidden;rotatable=0;points=[[0,0.5],[1,0.5]];portConstraint=eastwest;whiteSpace=wrap;html=1;" parent="tYps2S7MQluSmhWAjfAB-58" vertex="1">
          <mxGeometry y="104" width="160" height="26" as="geometry" />
        </mxCell>
        <mxCell id="tYps2S7MQluSmhWAjfAB-73" value="- cityFuelEconomy : double" style="text;strokeColor=none;fillColor=none;align=left;verticalAlign=top;spacingLeft=4;spacingRight=4;overflow=hidden;rotatable=0;points=[[0,0.5],[1,0.5]];portConstraint=eastwest;whiteSpace=wrap;html=1;" parent="tYps2S7MQluSmhWAjfAB-58" vertex="1">
          <mxGeometry y="130" width="160" height="26" as="geometry" />
        </mxCell>
        <mxCell id="tYps2S7MQluSmhWAjfAB-74" value="&lt;span style=&quot;font-size: 10px;&quot;&gt;- highwayFuelEconomy : double&lt;/span&gt;" style="text;strokeColor=none;fillColor=none;align=left;verticalAlign=top;spacingLeft=4;spacingRight=4;overflow=hidden;rotatable=0;points=[[0,0.5],[1,0.5]];portConstraint=eastwest;whiteSpace=wrap;html=1;" parent="tYps2S7MQluSmhWAjfAB-58" vertex="1">
          <mxGeometry y="156" width="160" height="26" as="geometry" />
        </mxCell>
        <mxCell id="tYps2S7MQluSmhWAjfAB-81" value="&lt;span style=&quot;font-size: 11px;&quot;&gt;- pistonConfiguration : String&lt;/span&gt;" style="text;strokeColor=none;fillColor=none;align=left;verticalAlign=top;spacingLeft=4;spacingRight=4;overflow=hidden;rotatable=0;points=[[0,0.5],[1,0.5]];portConstraint=eastwest;whiteSpace=wrap;html=1;" parent="tYps2S7MQluSmhWAjfAB-58" vertex="1">
          <mxGeometry y="182" width="160" height="26" as="geometry" />
        </mxCell>
        <mxCell id="tYps2S7MQluSmhWAjfAB-61" value="Transmission" style="swimlane;fontStyle=0;childLayout=stackLayout;horizontal=1;startSize=26;fillColor=none;horizontalStack=0;resizeParent=1;resizeParentMax=0;resizeLast=0;collapsible=1;marginBottom=0;whiteSpace=wrap;html=1;" parent="1" vertex="1">
          <mxGeometry x="360" y="792" width="160" height="104" as="geometry">
            <mxRectangle x="300" y="190" width="100" height="30" as="alternateBounds" />
          </mxGeometry>
        </mxCell>
        <mxCell id="tYps2S7MQluSmhWAjfAB-62" value="- transmissionType : String" style="text;strokeColor=none;fillColor=none;align=left;verticalAlign=top;spacingLeft=4;spacingRight=4;overflow=hidden;rotatable=0;points=[[0,0.5],[1,0.5]];portConstraint=eastwest;whiteSpace=wrap;html=1;" parent="tYps2S7MQluSmhWAjfAB-61" vertex="1">
          <mxGeometry y="26" width="160" height="26" as="geometry" />
        </mxCell>
        <mxCell id="kyoDJFqdKQox4XsUrkYe-2" value="- gearCount : int" style="text;strokeColor=none;fillColor=none;align=left;verticalAlign=top;spacingLeft=4;spacingRight=4;overflow=hidden;rotatable=0;points=[[0,0.5],[1,0.5]];portConstraint=eastwest;whiteSpace=wrap;html=1;" parent="tYps2S7MQluSmhWAjfAB-61" vertex="1">
          <mxGeometry y="52" width="160" height="26" as="geometry" />
        </mxCell>
        <mxCell id="kyoDJFqdKQox4XsUrkYe-5" value="- torqueConverter : Boolean" style="text;strokeColor=none;fillColor=none;align=left;verticalAlign=top;spacingLeft=4;spacingRight=4;overflow=hidden;rotatable=0;points=[[0,0.5],[1,0.5]];portConstraint=eastwest;whiteSpace=wrap;html=1;" parent="tYps2S7MQluSmhWAjfAB-61" vertex="1">
          <mxGeometry y="78" width="160" height="26" as="geometry" />
        </mxCell>
        <mxCell id="tYps2S7MQluSmhWAjfAB-63" value="" style="endArrow=block;endSize=16;endFill=0;html=1;rounded=0;" parent="1" target="tYps2S7MQluSmhWAjfAB-52" edge="1">
          <mxGeometry width="160" relative="1" as="geometry">
            <mxPoint x="440" y="744" as="sourcePoint" />
            <mxPoint x="480" y="684" as="targetPoint" />
          </mxGeometry>
        </mxCell>
        <mxCell id="tYps2S7MQluSmhWAjfAB-64" value="" style="endArrow=none;html=1;rounded=0;" parent="1" edge="1">
          <mxGeometry relative="1" as="geometry">
            <mxPoint x="200" y="744" as="sourcePoint" />
            <mxPoint x="920" y="744" as="targetPoint" />
          </mxGeometry>
        </mxCell>
        <mxCell id="tYps2S7MQluSmhWAjfAB-65" value="" style="endArrow=none;html=1;rounded=0;" parent="1" source="tYps2S7MQluSmhWAjfAB-58" edge="1">
          <mxGeometry relative="1" as="geometry">
            <mxPoint x="230" y="804" as="sourcePoint" />
            <mxPoint x="200" y="744" as="targetPoint" />
          </mxGeometry>
        </mxCell>
        <mxCell id="kyoDJFqdKQox4XsUrkYe-1" value="" style="endArrow=none;html=1;rounded=0;" parent="1" source="tYps2S7MQluSmhWAjfAB-61" edge="1">
          <mxGeometry relative="1" as="geometry">
            <mxPoint x="350" y="774" as="sourcePoint" />
            <mxPoint x="440" y="744" as="targetPoint" />
          </mxGeometry>
        </mxCell>
        <mxCell id="kyoDJFqdKQox4XsUrkYe-15" value="Drivetrain" style="swimlane;fontStyle=0;childLayout=stackLayout;horizontal=1;startSize=26;fillColor=none;horizontalStack=0;resizeParent=1;resizeParentMax=0;resizeLast=0;collapsible=1;marginBottom=0;whiteSpace=wrap;html=1;" parent="1" vertex="1">
          <mxGeometry x="600" y="792" width="160" height="100" as="geometry">
            <mxRectangle x="300" y="190" width="100" height="30" as="alternateBounds" />
          </mxGeometry>
        </mxCell>
        <mxCell id="kyoDJFqdKQox4XsUrkYe-16" value="- wheelDriveType : String" style="text;strokeColor=none;fillColor=none;align=left;verticalAlign=top;spacingLeft=4;spacingRight=4;overflow=hidden;rotatable=0;points=[[0,0.5],[1,0.5]];portConstraint=eastwest;whiteSpace=wrap;html=1;" parent="kyoDJFqdKQox4XsUrkYe-15" vertex="1">
          <mxGeometry y="26" width="160" height="26" as="geometry" />
        </mxCell>
        <mxCell id="kyoDJFqdKQox4XsUrkYe-21" value="- finalDriveRatio: double" style="text;strokeColor=none;fillColor=none;align=left;verticalAlign=top;spacingLeft=4;spacingRight=4;overflow=hidden;rotatable=0;points=[[0,0.5],[1,0.5]];portConstraint=eastwest;whiteSpace=wrap;html=1;" parent="kyoDJFqdKQox4XsUrkYe-15" vertex="1">
          <mxGeometry y="52" width="160" height="26" as="geometry" />
        </mxCell>
        <mxCell id="kyoDJFqdKQox4XsUrkYe-32" value="- differentialRatio : double" style="text;strokeColor=none;fillColor=none;align=left;verticalAlign=top;spacingLeft=4;spacingRight=4;overflow=hidden;rotatable=0;points=[[0,0.5],[1,0.5]];portConstraint=eastwest;whiteSpace=wrap;html=1;" parent="kyoDJFqdKQox4XsUrkYe-15" vertex="1">
          <mxGeometry y="78" width="160" height="22" as="geometry" />
        </mxCell>
        <mxCell id="kyoDJFqdKQox4XsUrkYe-22" value="" style="endArrow=none;html=1;rounded=0;" parent="1" source="kyoDJFqdKQox4XsUrkYe-15" edge="1">
          <mxGeometry relative="1" as="geometry">
            <mxPoint x="450" y="802" as="sourcePoint" />
            <mxPoint x="680" y="744" as="targetPoint" />
          </mxGeometry>
        </mxCell>
        <mxCell id="Od9WjKBmiowAuR5U3fcc-1" value="Body" style="swimlane;fontStyle=0;childLayout=stackLayout;horizontal=1;startSize=26;fillColor=none;horizontalStack=0;resizeParent=1;resizeParentMax=0;resizeLast=0;collapsible=1;marginBottom=0;whiteSpace=wrap;html=1;" parent="1" vertex="1">
          <mxGeometry x="840" y="792" width="160" height="234" as="geometry">
            <mxRectangle x="300" y="190" width="100" height="30" as="alternateBounds" />
          </mxGeometry>
        </mxCell>
        <mxCell id="Od9WjKBmiowAuR5U3fcc-2" value="- grossWeight : double" style="text;strokeColor=none;fillColor=none;align=left;verticalAlign=top;spacingLeft=4;spacingRight=4;overflow=hidden;rotatable=0;points=[[0,0.5],[1,0.5]];portConstraint=eastwest;whiteSpace=wrap;html=1;" parent="Od9WjKBmiowAuR5U3fcc-1" vertex="1">
          <mxGeometry y="26" width="160" height="26" as="geometry" />
        </mxCell>
        <mxCell id="Od9WjKBmiowAuR5U3fcc-6" value="- curbWeight : double" style="text;strokeColor=none;fillColor=none;align=left;verticalAlign=top;spacingLeft=4;spacingRight=4;overflow=hidden;rotatable=0;points=[[0,0.5],[1,0.5]];portConstraint=eastwest;whiteSpace=wrap;html=1;" parent="Od9WjKBmiowAuR5U3fcc-1" vertex="1">
          <mxGeometry y="52" width="160" height="26" as="geometry" />
        </mxCell>
        <mxCell id="Od9WjKBmiowAuR5U3fcc-7" value="- cargoCapacity : double" style="text;strokeColor=none;fillColor=none;align=left;verticalAlign=top;spacingLeft=4;spacingRight=4;overflow=hidden;rotatable=0;points=[[0,0.5],[1,0.5]];portConstraint=eastwest;whiteSpace=wrap;html=1;" parent="Od9WjKBmiowAuR5U3fcc-1" vertex="1">
          <mxGeometry y="78" width="160" height="26" as="geometry" />
        </mxCell>
        <mxCell id="Od9WjKBmiowAuR5U3fcc-8" value="- towingCapacity : double" style="text;strokeColor=none;fillColor=none;align=left;verticalAlign=top;spacingLeft=4;spacingRight=4;overflow=hidden;rotatable=0;points=[[0,0.5],[1,0.5]];portConstraint=eastwest;whiteSpace=wrap;html=1;" parent="Od9WjKBmiowAuR5U3fcc-1" vertex="1">
          <mxGeometry y="104" width="160" height="26" as="geometry" />
        </mxCell>
        <mxCell id="Od9WjKBmiowAuR5U3fcc-51" value="- seatingCapacity : int" style="text;strokeColor=none;fillColor=none;align=left;verticalAlign=top;spacingLeft=4;spacingRight=4;overflow=hidden;rotatable=0;points=[[0,0.5],[1,0.5]];portConstraint=eastwest;whiteSpace=wrap;html=1;" parent="Od9WjKBmiowAuR5U3fcc-1" vertex="1">
          <mxGeometry y="130" width="160" height="26" as="geometry" />
        </mxCell>
        <mxCell id="Od9WjKBmiowAuR5U3fcc-27" value="- color : String" style="text;strokeColor=none;fillColor=none;align=left;verticalAlign=top;spacingLeft=4;spacingRight=4;overflow=hidden;rotatable=0;points=[[0,0.5],[1,0.5]];portConstraint=eastwest;whiteSpace=wrap;html=1;" parent="Od9WjKBmiowAuR5U3fcc-1" vertex="1">
          <mxGeometry y="156" width="160" height="26" as="geometry" />
        </mxCell>
        <mxCell id="ZaRVG7wh-fFme3J9Wx36-10" value="- fuelCapacity : double" style="text;strokeColor=none;fillColor=none;align=left;verticalAlign=top;spacingLeft=4;spacingRight=4;overflow=hidden;rotatable=0;points=[[0,0.5],[1,0.5]];portConstraint=eastwest;whiteSpace=wrap;html=1;" parent="Od9WjKBmiowAuR5U3fcc-1" vertex="1">
          <mxGeometry y="182" width="160" height="26" as="geometry" />
        </mxCell>
        <mxCell id="ZifQeiChf-1d4aZ04pU3-52" value="&lt;span style=&quot;font-size: 11px;&quot;&gt;- bodyType : String&lt;/span&gt;" style="text;strokeColor=none;fillColor=none;align=left;verticalAlign=top;spacingLeft=4;spacingRight=4;overflow=hidden;rotatable=0;points=[[0,0.5],[1,0.5]];portConstraint=eastwest;whiteSpace=wrap;html=1;" vertex="1" parent="Od9WjKBmiowAuR5U3fcc-1">
          <mxGeometry y="208" width="160" height="26" as="geometry" />
        </mxCell>
        <mxCell id="Od9WjKBmiowAuR5U3fcc-5" value="" style="endArrow=none;html=1;rounded=0;" parent="1" source="Od9WjKBmiowAuR5U3fcc-1" edge="1">
          <mxGeometry relative="1" as="geometry">
            <mxPoint x="780" y="772" as="sourcePoint" />
            <mxPoint x="920" y="744" as="targetPoint" />
          </mxGeometry>
        </mxCell>
        <mxCell id="Od9WjKBmiowAuR5U3fcc-36" value="Price" style="swimlane;fontStyle=0;align=center;verticalAlign=top;childLayout=stackLayout;horizontal=1;startSize=26;horizontalStack=0;resizeParent=1;resizeParentMax=0;resizeLast=0;collapsible=1;marginBottom=0;whiteSpace=wrap;html=1;" parent="1" vertex="1">
          <mxGeometry x="120" y="530" width="160" height="164" as="geometry" />
        </mxCell>
        <mxCell id="Od9WjKBmiowAuR5U3fcc-37" value="- totalPrice : double" style="text;strokeColor=none;fillColor=none;align=left;verticalAlign=top;spacingLeft=4;spacingRight=4;overflow=hidden;rotatable=0;points=[[0,0.5],[1,0.5]];portConstraint=eastwest;whiteSpace=wrap;html=1;" parent="Od9WjKBmiowAuR5U3fcc-36" vertex="1">
          <mxGeometry y="26" width="160" height="26" as="geometry" />
        </mxCell>
        <mxCell id="Od9WjKBmiowAuR5U3fcc-40" value="- rentPriceDaily : double" style="text;strokeColor=none;fillColor=none;align=left;verticalAlign=top;spacingLeft=4;spacingRight=4;overflow=hidden;rotatable=0;points=[[0,0.5],[1,0.5]];portConstraint=eastwest;whiteSpace=wrap;html=1;" parent="Od9WjKBmiowAuR5U3fcc-36" vertex="1">
          <mxGeometry y="52" width="160" height="26" as="geometry" />
        </mxCell>
        <mxCell id="Od9WjKBmiowAuR5U3fcc-41" value="- rentPriceWeekly : double" style="text;strokeColor=none;fillColor=none;align=left;verticalAlign=top;spacingLeft=4;spacingRight=4;overflow=hidden;rotatable=0;points=[[0,0.5],[1,0.5]];portConstraint=eastwest;whiteSpace=wrap;html=1;" parent="Od9WjKBmiowAuR5U3fcc-36" vertex="1">
          <mxGeometry y="78" width="160" height="26" as="geometry" />
        </mxCell>
        <mxCell id="Od9WjKBmiowAuR5U3fcc-44" value="- rentPriceMonthly : double" style="text;strokeColor=none;fillColor=none;align=left;verticalAlign=top;spacingLeft=4;spacingRight=4;overflow=hidden;rotatable=0;points=[[0,0.5],[1,0.5]];portConstraint=eastwest;whiteSpace=wrap;html=1;" parent="Od9WjKBmiowAuR5U3fcc-36" vertex="1">
          <mxGeometry y="104" width="160" height="26" as="geometry" />
        </mxCell>
        <mxCell id="Od9WjKBmiowAuR5U3fcc-38" value="" style="line;strokeWidth=1;fillColor=none;align=left;verticalAlign=middle;spacingTop=-1;spacingLeft=3;spacingRight=3;rotatable=0;labelPosition=right;points=[];portConstraint=eastwest;strokeColor=inherit;" parent="Od9WjKBmiowAuR5U3fcc-36" vertex="1">
          <mxGeometry y="130" width="160" height="8" as="geometry" />
        </mxCell>
        <mxCell id="Od9WjKBmiowAuR5U3fcc-39" value="+ calculateTotalCost(int) : void" style="text;strokeColor=none;fillColor=none;align=left;verticalAlign=top;spacingLeft=4;spacingRight=4;overflow=hidden;rotatable=0;points=[[0,0.5],[1,0.5]];portConstraint=eastwest;whiteSpace=wrap;html=1;fontSize=11;" parent="Od9WjKBmiowAuR5U3fcc-36" vertex="1">
          <mxGeometry y="138" width="160" height="26" as="geometry" />
        </mxCell>
        <mxCell id="Od9WjKBmiowAuR5U3fcc-50" value="" style="endArrow=open;html=1;endSize=12;startArrow=diamondThin;startSize=14;startFill=1;edgeStyle=orthogonalEdgeStyle;align=left;verticalAlign=bottom;rounded=0;" parent="1" source="tYps2S7MQluSmhWAjfAB-1" target="Od9WjKBmiowAuR5U3fcc-36" edge="1">
          <mxGeometry x="-1" y="3" relative="1" as="geometry">
            <mxPoint x="620" y="214" as="sourcePoint" />
            <mxPoint x="600" y="244" as="targetPoint" />
            <Array as="points">
              <mxPoint x="400" y="490" />
              <mxPoint x="200" y="490" />
            </Array>
          </mxGeometry>
        </mxCell>
        <mxCell id="ZaRVG7wh-fFme3J9Wx36-11" value="CarBuilder" style="swimlane;fontStyle=0;childLayout=stackLayout;horizontal=1;startSize=26;fillColor=none;horizontalStack=0;resizeParent=1;resizeParentMax=0;resizeLast=0;collapsible=1;marginBottom=0;whiteSpace=wrap;html=1;" parent="1" vertex="1">
          <mxGeometry x="360" y="-106" width="160" height="320" as="geometry">
            <mxRectangle x="300" y="190" width="100" height="30" as="alternateBounds" />
          </mxGeometry>
        </mxCell>
        <mxCell id="ZaRVG7wh-fFme3J9Wx36-17" value="- carID : int" style="text;strokeColor=none;fillColor=none;align=left;verticalAlign=top;spacingLeft=4;spacingRight=4;overflow=hidden;rotatable=0;points=[[0,0.5],[1,0.5]];portConstraint=eastwest;whiteSpace=wrap;html=1;" parent="ZaRVG7wh-fFme3J9Wx36-11" vertex="1">
          <mxGeometry y="26" width="160" height="26" as="geometry" />
        </mxCell>
        <mxCell id="ZaRVG7wh-fFme3J9Wx36-13" value="- make: Make" style="text;strokeColor=none;fillColor=none;align=left;verticalAlign=top;spacingLeft=4;spacingRight=4;overflow=hidden;rotatable=0;points=[[0,0.5],[1,0.5]];portConstraint=eastwest;whiteSpace=wrap;html=1;" parent="ZaRVG7wh-fFme3J9Wx36-11" vertex="1">
          <mxGeometry y="52" width="160" height="26" as="geometry" />
        </mxCell>
        <mxCell id="ZaRVG7wh-fFme3J9Wx36-14" value="- model : Model" style="text;strokeColor=none;fillColor=none;align=left;verticalAlign=top;spacingLeft=4;spacingRight=4;overflow=hidden;rotatable=0;points=[[0,0.5],[1,0.5]];portConstraint=eastwest;whiteSpace=wrap;html=1;" parent="ZaRVG7wh-fFme3J9Wx36-11" vertex="1">
          <mxGeometry y="78" width="160" height="26" as="geometry" />
        </mxCell>
        <mxCell id="ZaRVG7wh-fFme3J9Wx36-15" value="- specs :&amp;nbsp;&lt;span style=&quot;text-align: center;&quot;&gt;Specification&lt;/span&gt;" style="text;strokeColor=none;fillColor=none;align=left;verticalAlign=top;spacingLeft=4;spacingRight=4;overflow=hidden;rotatable=0;points=[[0,0.5],[1,0.5]];portConstraint=eastwest;whiteSpace=wrap;html=1;" parent="ZaRVG7wh-fFme3J9Wx36-11" vertex="1">
          <mxGeometry y="104" width="160" height="26" as="geometry" />
        </mxCell>
        <mxCell id="ZaRVG7wh-fFme3J9Wx36-16" value="- parts : ArrayList&amp;lt;Part&amp;gt;" style="text;strokeColor=none;fillColor=none;align=left;verticalAlign=top;spacingLeft=4;spacingRight=4;overflow=hidden;rotatable=0;points=[[0,0.5],[1,0.5]];portConstraint=eastwest;whiteSpace=wrap;html=1;" parent="ZaRVG7wh-fFme3J9Wx36-11" vertex="1">
          <mxGeometry y="130" width="160" height="26" as="geometry" />
        </mxCell>
        <mxCell id="ZaRVG7wh-fFme3J9Wx36-18" value="" style="line;strokeWidth=1;fillColor=none;align=left;verticalAlign=middle;spacingTop=-1;spacingLeft=3;spacingRight=3;rotatable=0;labelPosition=right;points=[];portConstraint=eastwest;strokeColor=inherit;" parent="ZaRVG7wh-fFme3J9Wx36-11" vertex="1">
          <mxGeometry y="156" width="160" height="8" as="geometry" />
        </mxCell>
        <mxCell id="ZaRVG7wh-fFme3J9Wx36-19" value="+ setCarID(int) : CarBuilder" style="text;strokeColor=none;fillColor=none;align=left;verticalAlign=top;spacingLeft=4;spacingRight=4;overflow=hidden;rotatable=0;points=[[0,0.5],[1,0.5]];portConstraint=eastwest;whiteSpace=wrap;html=1;" parent="ZaRVG7wh-fFme3J9Wx36-11" vertex="1">
          <mxGeometry y="164" width="160" height="26" as="geometry" />
        </mxCell>
        <mxCell id="MgJlNH9T_PG5oow2IctL-1" value="+ setMake(Make) : CarBuilder" style="text;strokeColor=none;fillColor=none;align=left;verticalAlign=top;spacingLeft=4;spacingRight=4;overflow=hidden;rotatable=0;points=[[0,0.5],[1,0.5]];portConstraint=eastwest;whiteSpace=wrap;html=1;fontSize=11;" parent="ZaRVG7wh-fFme3J9Wx36-11" vertex="1">
          <mxGeometry y="190" width="160" height="26" as="geometry" />
        </mxCell>
        <mxCell id="MgJlNH9T_PG5oow2IctL-2" value="+ setModel(Model) : CarBuilder" style="text;strokeColor=none;fillColor=none;align=left;verticalAlign=top;spacingLeft=4;spacingRight=4;overflow=hidden;rotatable=0;points=[[0,0.5],[1,0.5]];portConstraint=eastwest;whiteSpace=wrap;html=1;fontSize=10;" parent="ZaRVG7wh-fFme3J9Wx36-11" vertex="1">
          <mxGeometry y="216" width="160" height="26" as="geometry" />
        </mxCell>
        <mxCell id="MgJlNH9T_PG5oow2IctL-3" value="+ setSpecs(Specification) : CarBuilder" style="text;strokeColor=none;fillColor=none;align=left;verticalAlign=top;spacingLeft=4;spacingRight=4;overflow=hidden;rotatable=0;points=[[0,0.5],[1,0.5]];portConstraint=eastwest;whiteSpace=wrap;html=1;fontSize=8;" parent="ZaRVG7wh-fFme3J9Wx36-11" vertex="1">
          <mxGeometry y="242" width="160" height="26" as="geometry" />
        </mxCell>
        <mxCell id="MgJlNH9T_PG5oow2IctL-4" value="+ addPart(Part) : CarBuilder" style="text;strokeColor=none;fillColor=none;align=left;verticalAlign=top;spacingLeft=4;spacingRight=4;overflow=hidden;rotatable=0;points=[[0,0.5],[1,0.5]];portConstraint=eastwest;whiteSpace=wrap;html=1;fontSize=12;" parent="ZaRVG7wh-fFme3J9Wx36-11" vertex="1">
          <mxGeometry y="268" width="160" height="26" as="geometry" />
        </mxCell>
        <mxCell id="MgJlNH9T_PG5oow2IctL-5" value="+ build() : Car" style="text;strokeColor=none;fillColor=none;align=left;verticalAlign=top;spacingLeft=4;spacingRight=4;overflow=hidden;rotatable=0;points=[[0,0.5],[1,0.5]];portConstraint=eastwest;whiteSpace=wrap;html=1;fontSize=12;" parent="ZaRVG7wh-fFme3J9Wx36-11" vertex="1">
          <mxGeometry y="294" width="160" height="26" as="geometry" />
        </mxCell>
        <mxCell id="ZifQeiChf-1d4aZ04pU3-19" value="" style="endArrow=open;html=1;endSize=12;startArrow=diamondThin;startSize=14;startFill=1;edgeStyle=orthogonalEdgeStyle;align=left;verticalAlign=bottom;rounded=0;" edge="1" parent="1" source="tYps2S7MQluSmhWAjfAB-20" target="tYps2S7MQluSmhWAjfAB-1">
          <mxGeometry x="-1" y="3" relative="1" as="geometry">
            <mxPoint x="320" y="130" as="sourcePoint" />
            <mxPoint x="850" y="190" as="targetPoint" />
            <Array as="points">
              <mxPoint x="300" y="369" />
              <mxPoint x="300" y="369" />
            </Array>
            <mxPoint as="offset" />
          </mxGeometry>
        </mxCell>
        <mxCell id="ZifQeiChf-1d4aZ04pU3-20" value="" style="endArrow=open;endSize=12;dashed=1;html=1;rounded=0;" edge="1" parent="1" source="tYps2S7MQluSmhWAjfAB-1" target="ZaRVG7wh-fFme3J9Wx36-11">
          <mxGeometry width="160" relative="1" as="geometry">
            <mxPoint x="560" y="200" as="sourcePoint" />
            <mxPoint x="720" y="200" as="targetPoint" />
          </mxGeometry>
        </mxCell>
        <mxCell id="ZifQeiChf-1d4aZ04pU3-27" value="PartFactory" style="swimlane;fontStyle=0;childLayout=stackLayout;horizontal=1;startSize=26;fillColor=none;horizontalStack=0;resizeParent=1;resizeParentMax=0;resizeLast=0;collapsible=1;marginBottom=0;whiteSpace=wrap;html=1;" vertex="1" parent="1">
          <mxGeometry x="480" y="1240" width="160" height="52" as="geometry">
            <mxRectangle x="300" y="190" width="100" height="30" as="alternateBounds" />
          </mxGeometry>
        </mxCell>
        <mxCell id="ZifQeiChf-1d4aZ04pU3-28" value="+ create() : Part" style="text;strokeColor=none;fillColor=none;align=left;verticalAlign=top;spacingLeft=4;spacingRight=4;overflow=hidden;rotatable=0;points=[[0,0.5],[1,0.5]];portConstraint=eastwest;whiteSpace=wrap;html=1;fontSize=10;" vertex="1" parent="ZifQeiChf-1d4aZ04pU3-27">
          <mxGeometry y="26" width="160" height="26" as="geometry" />
        </mxCell>
        <mxCell id="ZifQeiChf-1d4aZ04pU3-32" value="EngineFactory" style="swimlane;fontStyle=0;childLayout=stackLayout;horizontal=1;startSize=26;fillColor=none;horizontalStack=0;resizeParent=1;resizeParentMax=0;resizeLast=0;collapsible=1;marginBottom=0;whiteSpace=wrap;html=1;" vertex="1" parent="1">
          <mxGeometry x="120" y="1080" width="160" height="52" as="geometry">
            <mxRectangle x="300" y="190" width="100" height="30" as="alternateBounds" />
          </mxGeometry>
        </mxCell>
        <mxCell id="ZifQeiChf-1d4aZ04pU3-33" value="+ createEngine(String, String, double, int, int, String, double, double, String) : Engine" style="text;strokeColor=none;fillColor=none;align=left;verticalAlign=top;spacingLeft=4;spacingRight=4;overflow=hidden;rotatable=0;points=[[0,0.5],[1,0.5]];portConstraint=eastwest;whiteSpace=wrap;html=1;fontSize=7;" vertex="1" parent="ZifQeiChf-1d4aZ04pU3-32">
          <mxGeometry y="26" width="160" height="26" as="geometry" />
        </mxCell>
        <mxCell id="ZifQeiChf-1d4aZ04pU3-34" value="TransmissionFactory" style="swimlane;fontStyle=0;childLayout=stackLayout;horizontal=1;startSize=26;fillColor=none;horizontalStack=0;resizeParent=1;resizeParentMax=0;resizeLast=0;collapsible=1;marginBottom=0;whiteSpace=wrap;html=1;" vertex="1" parent="1">
          <mxGeometry x="360" y="1080" width="160" height="52" as="geometry">
            <mxRectangle x="300" y="190" width="100" height="30" as="alternateBounds" />
          </mxGeometry>
        </mxCell>
        <mxCell id="ZifQeiChf-1d4aZ04pU3-35" value="+ createTransmission(String, String, String, int gearCount, Boolean) : Transmission" style="text;strokeColor=none;fillColor=none;align=left;verticalAlign=top;spacingLeft=4;spacingRight=4;overflow=hidden;rotatable=0;points=[[0,0.5],[1,0.5]];portConstraint=eastwest;whiteSpace=wrap;html=1;fontSize=7;" vertex="1" parent="ZifQeiChf-1d4aZ04pU3-34">
          <mxGeometry y="26" width="160" height="26" as="geometry" />
        </mxCell>
        <mxCell id="ZifQeiChf-1d4aZ04pU3-36" value="DrivetrainFactory" style="swimlane;fontStyle=0;childLayout=stackLayout;horizontal=1;startSize=26;fillColor=none;horizontalStack=0;resizeParent=1;resizeParentMax=0;resizeLast=0;collapsible=1;marginBottom=0;whiteSpace=wrap;html=1;" vertex="1" parent="1">
          <mxGeometry x="600" y="1080" width="160" height="52" as="geometry">
            <mxRectangle x="300" y="190" width="100" height="30" as="alternateBounds" />
          </mxGeometry>
        </mxCell>
        <mxCell id="ZifQeiChf-1d4aZ04pU3-37" value="+ create&amp;nbsp;Drivetrain(String, String, String, double finalDriveRatio, double) : Drivetrain" style="text;strokeColor=none;fillColor=none;align=left;verticalAlign=top;spacingLeft=4;spacingRight=4;overflow=hidden;rotatable=0;points=[[0,0.5],[1,0.5]];portConstraint=eastwest;whiteSpace=wrap;html=1;fontSize=7;" vertex="1" parent="ZifQeiChf-1d4aZ04pU3-36">
          <mxGeometry y="26" width="160" height="26" as="geometry" />
        </mxCell>
        <mxCell id="ZifQeiChf-1d4aZ04pU3-38" value="BodyFactory" style="swimlane;fontStyle=0;childLayout=stackLayout;horizontal=1;startSize=26;fillColor=none;horizontalStack=0;resizeParent=1;resizeParentMax=0;resizeLast=0;collapsible=1;marginBottom=0;whiteSpace=wrap;html=1;" vertex="1" parent="1">
          <mxGeometry x="840" y="1080" width="160" height="52" as="geometry">
            <mxRectangle x="300" y="190" width="100" height="30" as="alternateBounds" />
          </mxGeometry>
        </mxCell>
        <mxCell id="ZifQeiChf-1d4aZ04pU3-39" value="&lt;span style=&quot;font-size: 6px;&quot;&gt;+ createBody(String, String, double, double, double, double, double, String, double, String) : Body&lt;/span&gt;" style="text;strokeColor=none;fillColor=none;align=left;verticalAlign=top;spacingLeft=4;spacingRight=4;overflow=hidden;rotatable=0;points=[[0,0.5],[1,0.5]];portConstraint=eastwest;whiteSpace=wrap;html=1;fontSize=6;" vertex="1" parent="ZifQeiChf-1d4aZ04pU3-38">
          <mxGeometry y="26" width="160" height="26" as="geometry" />
        </mxCell>
        <mxCell id="ZifQeiChf-1d4aZ04pU3-40" value="" style="endArrow=block;dashed=1;endFill=0;endSize=12;html=1;rounded=0;" edge="1" parent="1" target="ZifQeiChf-1d4aZ04pU3-27">
          <mxGeometry width="160" relative="1" as="geometry">
            <mxPoint x="560" y="1180" as="sourcePoint" />
            <mxPoint x="800" y="1110" as="targetPoint" />
          </mxGeometry>
        </mxCell>
        <mxCell id="ZifQeiChf-1d4aZ04pU3-41" value="" style="endArrow=none;html=1;rounded=0;dashed=1;" edge="1" parent="1">
          <mxGeometry relative="1" as="geometry">
            <mxPoint x="200" y="1180" as="sourcePoint" />
            <mxPoint x="920" y="1180" as="targetPoint" />
          </mxGeometry>
        </mxCell>
        <mxCell id="ZifQeiChf-1d4aZ04pU3-42" value="" style="endArrow=none;html=1;rounded=0;dashed=1;" edge="1" parent="1" source="ZifQeiChf-1d4aZ04pU3-32">
          <mxGeometry relative="1" as="geometry">
            <mxPoint x="210" y="1190" as="sourcePoint" />
            <mxPoint x="200" y="1180" as="targetPoint" />
          </mxGeometry>
        </mxCell>
        <mxCell id="ZifQeiChf-1d4aZ04pU3-43" value="" style="endArrow=none;html=1;rounded=0;dashed=1;" edge="1" parent="1" source="ZifQeiChf-1d4aZ04pU3-34">
          <mxGeometry relative="1" as="geometry">
            <mxPoint x="210" y="1142" as="sourcePoint" />
            <mxPoint x="440" y="1180" as="targetPoint" />
          </mxGeometry>
        </mxCell>
        <mxCell id="ZifQeiChf-1d4aZ04pU3-44" value="" style="endArrow=none;html=1;rounded=0;dashed=1;" edge="1" parent="1" source="ZifQeiChf-1d4aZ04pU3-36">
          <mxGeometry relative="1" as="geometry">
            <mxPoint x="450" y="1142" as="sourcePoint" />
            <mxPoint x="680" y="1180" as="targetPoint" />
          </mxGeometry>
        </mxCell>
        <mxCell id="ZifQeiChf-1d4aZ04pU3-45" value="" style="endArrow=none;html=1;rounded=0;dashed=1;" edge="1" parent="1" source="ZifQeiChf-1d4aZ04pU3-38">
          <mxGeometry relative="1" as="geometry">
            <mxPoint x="690" y="1142" as="sourcePoint" />
            <mxPoint x="920" y="1180" as="targetPoint" />
          </mxGeometry>
        </mxCell>
        <mxCell id="ZifQeiChf-1d4aZ04pU3-48" value="" style="endArrow=open;endSize=12;dashed=1;html=1;rounded=0;" edge="1" parent="1" source="tYps2S7MQluSmhWAjfAB-58" target="ZifQeiChf-1d4aZ04pU3-32">
          <mxGeometry width="160" relative="1" as="geometry">
            <mxPoint x="590" y="1090" as="sourcePoint" />
            <mxPoint x="590" y="906" as="targetPoint" />
          </mxGeometry>
        </mxCell>
        <mxCell id="ZifQeiChf-1d4aZ04pU3-49" value="" style="endArrow=open;endSize=12;dashed=1;html=1;rounded=0;" edge="1" parent="1" source="tYps2S7MQluSmhWAjfAB-61" target="ZifQeiChf-1d4aZ04pU3-34">
          <mxGeometry width="160" relative="1" as="geometry">
            <mxPoint x="210" y="1010" as="sourcePoint" />
            <mxPoint x="210" y="1090" as="targetPoint" />
          </mxGeometry>
        </mxCell>
        <mxCell id="ZifQeiChf-1d4aZ04pU3-50" value="" style="endArrow=open;endSize=12;dashed=1;html=1;rounded=0;" edge="1" parent="1" source="kyoDJFqdKQox4XsUrkYe-15" target="ZifQeiChf-1d4aZ04pU3-36">
          <mxGeometry width="160" relative="1" as="geometry">
            <mxPoint x="220" y="1020" as="sourcePoint" />
            <mxPoint x="220" y="1100" as="targetPoint" />
          </mxGeometry>
        </mxCell>
        <mxCell id="ZifQeiChf-1d4aZ04pU3-51" value="" style="endArrow=open;endSize=12;dashed=1;html=1;rounded=0;" edge="1" parent="1" source="Od9WjKBmiowAuR5U3fcc-1" target="ZifQeiChf-1d4aZ04pU3-38">
          <mxGeometry width="160" relative="1" as="geometry">
            <mxPoint x="230" y="1030" as="sourcePoint" />
            <mxPoint x="230" y="1110" as="targetPoint" />
          </mxGeometry>
        </mxCell>
      </root>
    </mxGraphModel>
  </diagram>
</mxfile>
